<?xml version="1.0"?><svg width="640" height="480" xmlns="http://www.w3.org/2000/svg">
 <title>Cat outline</title>
 <defs>
  <radialGradient r="0.5" cy="0.5" cx="0.5" spreadMethod="reflect" id="svg_26">
   <stop offset="0" stop-color="#007fff"/>
   <stop offset="0.976563" stop-opacity="0.992188" stop-color="#0061ff"/>
  </radialGradient>
 </defs>
 <g>
  <title>Layer 1</title>
  <path d="m451.343994,248.098999c-0.915985,-10.056 -8.507996,-19.371002 -15.187988,-27.192001c-6.770996,-7.822998 -15.282013,-16.389999 -24.980011,-19.276993c-9.608002,-2.701004 -24.97998,-2.419998 -32.574982,2.608002c-7.503021,5.215988 -9.150024,19.462997 -12.169006,27.844986c-2.927002,8.383011 -2.470001,15.646011 -5.308014,21.978012c-2.927979,6.240997 -7.501984,11.359985 -11.985992,15.458008c-4.574005,4.003998 -11.529999,8.100983 -17.019012,9.778992l0,0c3.202026,3.070984 5.489014,7.355011 6.497009,12.848999c1.006012,5.402008 0.821991,11.734985 -0.550995,19.369995l0,0c13.451996,-5.679993 23.791992,-12.848999 31.386993,-21.882996c7.411011,-9.498016 9.149994,-22.351013 13.360016,-32.036011c4.024994,-9.681992 6.039001,-20.206985 11.345001,-24.398987c5.214996,-4.19101 14.181976,-3.53801 19.856995,-0.186005c5.031006,3.259995 8.598999,14.716003 12.807007,19.651001c4.392975,4.842987 8.694977,7.169006 13.268982,8.378998l0,0c-0.001007,0 12.261993,-2.88501 11.253998,-12.944l0,0z" stroke-width="4" stroke-miterlimit="10" stroke="#000000" fill-rule="evenodd" fill="url(#svg_26)" id="path7"/>
  <path d="m246.649994,234.781998c-9.423996,-0.186996 -17.294998,2.328003 -23.973999,7.171005c-6.862991,4.841995 -12.992996,14.713989 -16.286987,21.699005c-3.476013,6.798004 -5.124008,12.569977 -4.575012,18.343994l0,0c-8.052002,0.55899 -14.731003,2.700989 -20.771988,6.424988c-6.312012,3.820007 -12.078003,8.848999 -15.188004,15.831024c-2.929001,6.797974 -2.929001,18.067993 -2.105011,25.144989c0.823013,6.798004 4.118011,10.520996 6.313004,15.457001c1.921997,4.748993 3.111008,8.475983 4.576004,12.199005l0,0c-6.404999,1.770996 -10.615005,3.819977 -13.727005,7.542999c-2.834991,3.444977 -4.390991,8.846985 -4.300003,12.944977c-0.36499,3.725006 0.09201,7.541016 2.471008,9.684021c2.287003,2.048981 5.488998,2.513 10.613007,2.141998l0,0c0.824997,4.191986 2.837997,7.542999 6.038986,9.033997c3.20401,1.768005 8.603012,1.674988 12.99501,0.744995c4.115997,-1.212982 8.14299,-3.725983 12.078003,-7.542999l0,0c1.097,3.352997 2.378998,6.425018 4.207993,8.195007c1.557007,2.048004 3.569,2.794006 6.039001,3.259003c2.470993,0.373993 5.399002,-0.557007 8.783997,-1.766998l0,0c-0.731995,3.444977 0.459,5.772003 3.20401,6.609985c2.653,0.83902 7.227997,0.464996 13.358994,-1.117004l0,0c1.281006,5.772003 4.574997,8.660004 9.882996,9.031006c5.397003,0.093994 16.011017,-2.048981 21.593018,-7.169006c5.306976,-5.214996 8.96698,-12.757996 10.613983,-23.002991l0,0c2.471008,9.592987 5.489014,15.924988 10.157013,19.743988c4.391998,3.446014 12.167999,3.446014 16.286987,2.142029c3.84201,-1.30603 6.312988,-5.029022 7.04599,-10.430023l0,0c4.119019,4.098022 8.234009,5.772003 11.986023,5.401001c3.658997,-0.557983 7.319977,-3.539001 10.613983,-8.567993l0,0c3.570007,2.049011 6.406006,2.515015 8.876007,1.769012c2.196991,-0.931 3.934998,-3.445007 5.214996,-7.171021l0,0c6.131989,7.171021 11.437988,10.524017 15.556,11.082001c4.024994,0.281006 7.227997,-2.699982 9.240997,-8.940002l0,0c8.052002,0.281006 12.537018,-1.397003 14.822998,-5.401001c1.921021,-4.190002 0.640015,-13.40799 -2.835999,-18.343994c-3.567993,-5.122986 -9.697998,-8.940002 -18.389984,-11.828003l0,0c13.906982,-14.432983 21.317993,-26.074005 22.966003,-35.944c1.280975,-9.871979 -6.499023,-17.786987 -13.818024,-22.628998c-7.41098,-5.122986 -17.292999,-7.635986 -30.011993,-7.542999l0,0c1.92099,-15.179993 0.184998,-27.006989 -5.214996,-36.223999c-5.674011,-9.126999 -18.850006,-14.901993 -27.175995,-18.347992c-8.32901,-3.633011 -15.64801,-4.936005 -22.328003,-3.539001l0,0l-44.833008,3.910995l0,0z" stroke-width="4" stroke-miterlimit="10" stroke="#000000" fill-rule="evenodd" fill="url(#svg_26)" id="path35"/>
  <path d="m202.494003,284.161987c0.196991,6.503021 1.475998,13.769012 3.837997,21.799011c2.363007,7.937012 5.807007,17.401001 9.942001,26.197998c3.837997,8.51001 7.776993,16.541016 12.598999,24.476013l0,0c-6.496994,2.964996 -11.712006,6.214996 -15.255997,8.985992c-3.837997,2.679993 -5.21701,5.641998 -6.792007,8.128998c-1.770996,2.389008 -3.147003,4.207001 -3.738998,6.980011c-0.886993,2.772003 -1.084,5.640991 -0.591003,9.371002l0,0c-4.035995,4.395996 -7.972,7.167999 -11.809998,8.698975c-4.429993,1.052002 -8.858994,0.860016 -12.106995,-0.572998c-3.249008,-1.434998 -5.313995,-3.72998 -6.594009,-7.267975l0,0c5.021011,-1.623016 8.365005,-3.633026 10.827011,-5.640015c2.263,-2.104004 3.149994,-4.207001 3.049988,-6.691986l0,0c-4.525986,3.632996 -8.463989,6.691986 -12.596985,8.125c-4.430008,1.339996 -9.254013,2.965973 -11.810013,1.242981c-2.560989,-2.100006 -4.233994,-8.221985 -3.447998,-12.044983c0.494003,-4.110016 3.447998,-8.223999 6.595001,-10.900024c3.052002,-2.675995 6.497009,-4.302002 11.122009,-4.875977l0,0c6.397995,6.884003 9.645996,9.847992 10.136993,9.274994c0.100006,-1.147003 -5.708008,-9.46701 -7.972,-13.483002c-2.164993,-4.205994 -4.132996,-7.265991 -5.511993,-10.227997l0,0c4.034988,-3.156006 6.988998,-6.024994 9.940994,-9.371002c2.559998,-3.44101 6.397003,-7.839996 6.201996,-10.229004c-0.886993,-2.104004 -5.709,-2.584015 -8.761002,-3.632996c-2.854996,-1.529999 -5.412994,-3.253998 -8.069992,-5.165009l0,0c1.869995,-1.722992 4.92099,-2.579987 8.365997,-2.963989c3.445999,-0.382019 10.235992,1.625 12.796005,0.860992c1.869995,-1.145996 1.179001,-4.303009 0.589996,-7.268005c-0.886002,-3.25 -2.656998,-7.360992 -3.742004,-10.802002c-0.785004,-3.347992 -1.770004,-6.596985 -1.867004,-9.369995l0,0c2.559006,-1.147003 4.919006,-1.81601 7.478012,-2.393005c2.460999,-0.760986 4.724991,-1.049988 7.184998,-1.242004l0,0z" stroke-width="4" stroke-miterlimit="10" stroke="#000000" fill-rule="evenodd" fill="url(#svg_26)" id="path49"/>
  <path d="m298.445007,101.615997c0.458984,-2.887695 2.837982,-6.426598 6.770996,-10.616898c3.934998,-4.656197 10.613983,-10.243301 16.837006,-14.620697c5.855988,-4.376602 12.902985,-8.473801 18.665985,-11.174904c5.39801,-2.979198 10.248016,-4.842499 14.182007,-5.960499c3.570007,-1.302898 6.406006,-3.073002 8.877014,-1.768002c2.379974,0.930901 3.932983,3.3526 5.764984,8.287498c1.463013,4.842506 3.203003,13.503403 4.207001,20.9524c0.825989,7.264099 1.28299,16.204102 1.372986,22.909103c0,6.333 -0.638977,12.106003 -1.551971,16.296997c-1.100006,4.097008 -1.833008,6.517006 -4.303009,8.379997c-2.559998,1.583008 -6.403015,2.141998 -11.162018,1.67601l0,0c-5.765991,-9.964005 -13.177979,-17.786003 -23.242981,-23.467003c-10.157013,-5.773003 -21.959991,-9.404999 -36.417999,-10.894005l0,0z" stroke-width="4" stroke-miterlimit="10" stroke="#000000" fill-rule="evenodd" fill="url(#svg_26)" id="path53"/>
  <path d="m360.940002,124.709999c-0.27301,0.652 -1.279999,1.210999 -2.286011,1.676003c-1.372986,0.465996 -2.746002,0.743996 -4.850006,1.210999l0,0c0.915009,1.304001 2.104004,2.141006 2.837006,3.537003c0.731018,1.117996 1.373016,2.330002 1.921021,3.632996l0,0c1.372986,0.372009 2.560974,0.372009 4.302002,0c1.644989,-0.371994 3.109985,-1.490005 5.122986,-2.608002l0,0c-2.468994,-2.235001 -4.118011,-4.376999 -5.307007,-5.401993c-1.281006,-1.117004 -1.73999,-2.141006 -1.73999,-2.047005l0,0z" stroke-width="4" stroke-miterlimit="10" stroke="#000000" fill-rule="evenodd" fill="#ffffff" id="path71"/>
  <path d="m234.944,103.011002c-1.190002,-2.792999 -4.483002,-5.306801 -9.149994,-8.565399c-5.125,-3.260201 -12.994003,-7.451202 -19.764999,-10.057701c-6.95401,-2.794304 -14.823013,-4.843201 -20.771011,-6.146103c-6.222,-1.4907 -11.162994,-2.142097 -15.188995,-2.328499c-4.300003,-0.280197 -6.953003,-1.396698 -9.057999,0.558304c-2.195999,1.397499 -3.294006,4.284195 -3.660004,9.4048c-0.640991,5.028793 0.182007,13.969193 1.005997,21.418594c0.639999,7.264 2.378998,15.924004 4.118011,22.443008c1.463989,6.23999 3.385986,11.547989 5.398987,15.551987c2.013,3.631012 3.019012,5.960007 6.222,6.985001c3.019012,0.931 6.405014,0.557999 11.16301,-1.117996l0,0c3.020004,-11.26799 8.692001,-20.300995 17.018997,-28.495995c8.236008,-8.102005 19.125,-14.526001 32.666,-19.650002l0,0z" stroke-width="4" stroke-miterlimit="10" stroke="#000000" fill-rule="evenodd" fill="url(#svg_26)" id="path83"/>
  <path d="m263.217987,95.469704c-5.672974,0.8377 -9.606995,1.303596 -13.906982,1.7687c-4.391998,0.093094 -7.503998,-0.372704 -12.169998,0c-5.307007,0.093094 -11.347,-0.279503 -17.386002,1.769394c-6.039001,1.9562 -13.175003,6.425201 -17.567001,10.1502c-4.391998,3.353004 -6.589005,5.588005 -9.425003,10.709999c-3.384995,5.122002 -6.404007,12.292007 -9.057007,19.742004c-3.29599,7.263 -5.490997,14.899002 -7.595993,23.281006c-2.195999,7.913986 -3.475998,16.016998 -3.475998,24.304993c-0.091995,8.195007 1.005997,16.669006 4.026001,24.677994c2.927002,7.822006 5.945999,15.365005 13.998993,21.604004c7.87001,5.681 21.869003,10.52301 33.123001,13.411011c10.979996,2.699997 20.404999,2.980988 33.582016,3.35199c13.175995,0.186996 30.286987,-0.186996 44.651001,-2.513c14.090973,-2.888 29.553986,-7.356003 40.076996,-13.410995c10.341003,-6.238998 16.286987,-15.180008 21.777985,-23.281006c5.123016,-8.473999 8.052002,-17.319992 10.248016,-26.541c2.011993,-9.404999 4.390991,-18.903 3.201996,-28.494995c-1.372009,-9.779007 -4.757996,-20.207993 -10.157013,-28.776001c-5.671997,-8.660995 -12.994995,-16.389 -22.326996,-22.164001c-9.515991,-6.237801 -23.332001,-10.428795 -33.671997,-12.570999c-10.429993,-2.327698 -20.770996,-0.6521 -28.546997,0c-8.143005,0.278801 -13.90799,2.236099 -19.399017,2.980705l0,0z" stroke-width="4" stroke-miterlimit="10" stroke="#000000" fill-rule="evenodd" fill="url(#svg_26)" id="path115"/>
  <path d="m187.878998,226.722c-2.514999,-0.774002 -8.367004,-1.289001 -12.875992,-2.233994c-4.639008,-1.290009 -10.449005,-4.040009 -14.091003,-4.985001c-3.555008,-1.289001 -5.852997,-1.805008 -7.067001,-1.889999c-1.343002,-0.258011 -1.343002,1.201996 -0.996002,1.717987c0.042999,0.172012 0.606995,0.430008 2.341003,1.117004c1.863998,0.772995 4.768997,1.375 8.367004,2.75c3.424988,1.031006 8.280991,3.266006 12.051987,4.382996c3.512009,0.945007 7.328003,1.202011 9.582001,1.719009c2.167007,0.084991 3.555008,0.429001 3.988007,0.084991c0.434006,-0.685989 0.998001,-1.804001 -1.300003,-2.662994l0,0z" stroke-width="3" stroke-miterlimit="10" stroke="#000000" fill-rule="evenodd" fill="#ffffff" id="path187"/>
  <path d="m161.285004,238.307007c2.431992,-0.481003 4.86499,-1.203003 8.018997,-1.924011c3.041,-0.903 7.069,-2.584991 10.186005,-3.427002c3.078995,-1.141998 6.156998,-2.042999 8.056992,-2.463989c1.671997,-0.48201 2.432999,-0.421005 2.737,-0.061005c0.34201,0.121002 0.912003,0.781998 -0.645996,1.503006c-1.748001,0.60199 -6.005005,1.442993 -9.121002,2.524994c-3.154999,0.962006 -6.309998,2.285004 -9.615997,3.307007c-3.421005,0.781998 -7.488007,1.742996 -10.147995,2.223999c-2.813004,0.42099 -4.865005,1.021988 -6.157013,1.082001c-1.291992,-0.180008 -1.671997,-0.661011 -1.55899,-0.962006c0,-0.300003 0.343002,-0.660995 1.748993,-0.841995c1.406006,-0.360001 3.915009,-0.600998 6.499008,-0.960999l0,0z" stroke-width="3" stroke-miterlimit="10" stroke="#000000" fill-rule="evenodd" fill="#ffffff" id="path189"/>
  <path d="m169.962997,247.190002c1.869003,-1.289001 6.048996,-3.990005 8.615005,-5.602005c2.438004,-1.692001 4.117004,-2.578995 6.270004,-3.908997c2.028,-1.490997 4.940994,-3.345001 6.302994,-3.990997c1.298996,-0.604004 1.677994,-0.320999 1.488007,0.201996c-0.221008,0.242996 -1.108002,0.886993 -2.91301,2.095993c-2.05899,1.210007 -5.636993,3.224014 -8.518997,5.119003c-2.787994,1.813004 -5.669998,3.667999 -8.171005,5.561005c-2.628998,1.774002 -5.828003,3.908997 -7.412003,4.998993c-1.741989,0.887009 -2.247986,0.806 -2.500992,0.684006c-0.285995,-0.160995 0.220993,-0.966003 1.013,-1.490997c0.696991,-0.766006 2.279999,-1.410995 3.293991,-2.096008c0.823013,-0.563995 0.728012,-0.523987 2.533005,-1.571991l0,0z" stroke-width="3" stroke-miterlimit="10" stroke="#000000" fill-rule="evenodd" fill="#ffffff" id="path191"/>
  <path d="m356.227997,224.065002c1.886993,-1.014999 6.716003,-2.259003 10.417999,-3.734009c3.593994,-1.705994 7.877014,-3.826996 11.181,-5.485992c3.266998,-1.751999 6.606018,-3.919006 8.20401,-4.518005c1.451996,-0.645996 1.125,0.231003 0.97998,0.692001c-0.181976,0.184006 -0.03598,0 -1.815979,1.059998c-1.959015,0.969009 -6.061005,3.549011 -9.220001,5.255005c-3.266998,1.660004 -6.641998,3.227005 -9.546021,4.701996c-2.939972,1.199005 -5.952972,2.212997 -7.768982,2.859009c-1.886993,0.552002 -2.976013,0.968002 -3.266998,0.875c-0.434998,-0.184006 -1.08902,-0.875 0.834991,-1.705002l0,0z" stroke-width="3" stroke-miterlimit="10" stroke="#000000" fill-rule="evenodd" fill="#ffffff" id="path193"/>
  <path d="m375.451996,225.483002c-2.019989,0.464996 -4.039001,0.837997 -6.518005,1.115997c-2.539978,0.093002 -5.936981,-0.278992 -8.415985,-0.091995c-2.571014,-0.093002 -5.080017,0 -6.580017,0.278992c-1.468994,0.093002 -1.957977,0.746002 -2.171997,1.210007c-0.244995,0.466995 -0.765991,1.490997 0.673004,1.957001c1.347015,0.186005 4.804016,-0.74501 7.437012,-0.653c2.570007,0 5.171997,0.186996 7.925995,0.186996c2.722992,-0.373001 5.937012,-1.304001 8.231995,-1.675995c2.234009,-0.652008 3.856995,-0.74501 4.989014,-1.303009c0.979004,-0.838989 1.070984,-1.862991 1.10199,-2.328995c-0.031006,-0.559006 -0.428986,-0.559006 -1.438995,-0.373001c-1.223999,0.371994 -3.244019,0.931 -5.234009,1.677002l0,0z" stroke-width="2" stroke-miterlimit="10" stroke="#000000" fill-rule="evenodd" fill="#000000" id="path195"/>
  <path d="m372.234009,237.850006c-2.22702,-1.052002 -7.378021,-2.998001 -10.233002,-4.208008c-3.027008,-1.209 -5.602997,-2.156006 -7.447021,-2.839996c-1.879974,-0.735001 -2.888977,-1.472 -3.689972,-1.419998c-1.009003,-0.104004 -1.844025,0.210999 -1.56601,0.737991c0.208984,0.473007 1.915009,0.841003 3.514984,1.682007c1.497009,0.526001 3.620026,1.104004 6.231018,2.156998c2.679993,1.050995 6.612,2.735001 9.779999,4.259995c3.062988,1.262009 6.925995,3.154999 8.910004,3.839005c1.809998,0.578995 2.609985,0.104996 2.783997,0c0.208008,-0.367996 -0.557007,-0.945999 -1.358002,-1.524994c-0.903992,-0.631012 -2.783997,-1.156998 -3.897003,-1.578003c-1.252991,-0.578995 -0.834991,-0.210999 -3.028992,-1.104996l0,0z" stroke-width="2" stroke-miterlimit="10" stroke="#000000" fill-rule="evenodd" fill="#ffffff" id="path197"/>
  <line y2="298" x2="277" y1="385" x1="277" stroke-width="4" stroke-linejoin="null" stroke-linecap="null" stroke-dasharray="null" stroke="#000000" fill="#ffffff" id="svg_1"/>
  <path d="m345.864014,287.346985c-0.197021,6.221008 -1.473999,13.172028 -3.831024,20.854004c-2.358978,7.593018 -5.796997,16.645996 -9.924988,25.062012c-3.830994,8.140991 -7.763,15.824005 -12.576996,23.415009l0,0c6.485992,2.835999 11.691986,5.944977 15.229004,8.595978c3.832001,2.564026 5.207977,5.397003 6.779999,7.776001c1.768005,2.286011 3.141998,4.025024 3.733002,6.678009c0.884979,2.652008 1.082001,5.395996 0.589996,8.963989l0,0c4.028992,4.206024 7.958008,6.858002 11.789001,8.322021c4.421997,1.006989 8.843994,0.822998 12.085999,-0.548004c3.242981,-1.373016 5.304993,-3.567993 6.582001,-6.953003l0,0c-5.011993,-1.552002 -8.350006,-3.475006 -10.808014,-5.394989c-2.259003,-2.013 -3.143982,-4.025024 -3.044006,-6.402008l0,0c4.518005,3.475006 8.449005,6.402008 12.575012,7.77301c4.421997,1.281982 9.237,2.836975 11.789001,1.188995c2.556,-2.009003 4.226013,-7.865997 3.441986,-11.52301c-0.492981,-3.932007 -3.441986,-7.867004 -6.583984,-10.427002c-3.04599,-2.559998 -6.485016,-4.115997 -11.10199,-4.665009l0,0c-6.387024,6.585999 -9.628998,9.421021 -10.119019,8.873016c-0.100006,-1.097015 5.697998,-9.057007 7.958008,-12.89801c2.161011,-4.023987 4.125,-6.950989 5.501984,-9.785004l0,0c-4.027985,-3.018982 -6.97699,-5.763977 -9.923981,-8.963989c-2.554993,-3.291992 -6.38501,-7.501007 -6.19101,-9.786011c0.886017,-2.013 5.699005,-2.471985 8.746002,-3.474976c2.850006,-1.46402 5.403015,-3.113007 8.056,-4.94101l0,0c-1.867004,-1.649017 -4.912994,-2.468994 -8.350983,-2.835999c-3.440002,-0.365021 -10.218018,1.554993 -12.774017,0.824005c-1.867004,-1.097015 -1.177002,-4.117004 -0.588989,-6.953003c0.884003,-3.109009 2.651978,-7.042023 3.734985,-10.334015c0.783997,-3.201996 1.766998,-6.311005 1.864014,-8.962982l0,0c-2.554016,-1.098022 -4.910004,-1.738007 -7.464996,-2.290009c-2.456024,-0.727997 -4.716003,-1.003998 -7.171997,-1.188019l0,0z" stroke-width="4" stroke-miterlimit="10" stroke="#000000" fill-rule="evenodd" fill="url(#svg_26)" id="svg_14"/>
  <ellipse ry="28.2121" rx="17" cy="332.205" cx="187.303" transform="rotate(-18.6853 187.302 332.205)" stroke-width="4" stroke-linejoin="null" stroke-linecap="null" stroke-dasharray="null" stroke="#0072ff" fill="#0072ff" id="svg_17"/>
  <ellipse ry="20.5312" rx="11.1017" cy="308.539" cx="185.919" transform="rotate(25.0541 185.92 308.539)" stroke-width="4" stroke-linejoin="null" stroke-linecap="null" stroke-dasharray="null" stroke="#0072ff" fill="#0072ff" id="svg_18"/>
  <ellipse ry="20.5312" rx="13.0239" cy="314.071" cx="358.767" transform="rotate(-8.18974 358.77 314.071)" stroke-width="4" stroke-linejoin="null" stroke-linecap="null" stroke-dasharray="null" stroke="#0072ff" fill="#0072ff" id="svg_19"/>
  <ellipse ry="23.6879" rx="13.0239" cy="331.12" cx="363.948" transform="rotate(15.0448 363.946 331.12)" stroke-width="4" stroke-linejoin="null" stroke-linecap="null" stroke-dasharray="null" stroke="#0072ff" fill="#0072ff" id="svg_20"/>
 </g>
</svg>